<?xml version="1.0" encoding="UTF-8"?>
<svg width="30px" height="30px" viewBox="0 0 30 30" version="1.1" xmlns="http://www.w3.org/2000/svg" xmlns:xlink="http://www.w3.org/1999/xlink">
    <!-- Generator: Sketch 51 (57462) - http://www.bohemiancoding.com/sketch -->
    <title>Nielsen_logo</title>
    <desc>Created with Sketch.</desc>
    <defs></defs>
    <g id="Page-1" stroke="none" stroke-width="1" fill="none" fill-rule="evenodd">
        <g id="Performance-Staement" transform="translate(-18.000000, -13.000000)">
            <rect fill="#F7F7FA" x="0" y="0" width="1366" height="1780"></rect>
            <g id="Group-2">
                <g id="Logo">
                    <g id="产品">
                        <g id="Nielsen_logo" transform="translate(18.000000, 13.000000)">
                            <rect id="Rectangle-3" fill="#00ADEF" x="0" y="0" width="30" height="30"></rect>
                            <g id="g3405" transform="translate(5.000000, 6.000000)" fill="#FFFFFF" fill-rule="nonzero">
                                <path d="M6.45016453,4.87253319 C7.14834903,4.19401346 7.73772557,3.70667274 8.30896744,3.35304682 C8.87567564,3.00052598 9.58746115,2.82371302 10.4420571,2.82371302 C11.786289,2.82371302 12.7428924,3.27127083 13.3118675,4.16528135 C13.8808425,5.06150205 14.1664634,6.24172855 14.1664634,7.70375072 L14.1664634,17.2394947 C14.1664634,17.6417441 13.9590482,17.899228 13.5453513,18.0141564 C13.1316543,18.1268747 12.5751468,18.2086507 11.8769623,18.2594844 L11.8769623,18.6749949 L19.7984096,18.6749949 L19.7984096,18.3346299 C19.5660592,18.311379 19.3121739,18.2793759 19.0412874,18.2406981 C18.7692675,18.2031253 18.517649,18.1522916 18.2841653,18.089302 C18.0518149,18.0252073 17.8500668,17.9323805 17.6834546,17.8064012 C17.5157089,17.6782118 17.4307027,17.5279208 17.4307027,17.3522129 L17.4307027,6.22846758 C17.4307027,4.51448695 17.0283399,3.11434932 16.2281479,2.02915978 C15.4256891,0.945075321 14.2752714,0.403585631 12.7746281,0.403585631 C12.0764436,0.403585631 11.4043277,0.536195351 10.7571469,0.801414791 C10.1099661,1.06552915 9.5149225,1.40036869 8.97201604,1.80261818 C8.43024299,2.20707782 7.94400735,2.65353055 7.51784278,3.14639667 C7.0905448,3.63815772 6.73465204,4.09787141 6.45129794,4.52664284" id="path3035"></path>
                                <path d="M5.47746656,5.57038743 L5.47746656,17.3129781 C5.52960372,17.5660417 5.62027703,17.747275 5.74835308,17.8599932 C5.87756255,17.9749217 6.03397402,18.0566976 6.21418723,18.1086365 C6.39440044,18.1583209 6.60294906,18.1904124 6.83529942,18.2025683 C7.0687832,18.21468 7.31360115,18.2456223 7.5731535,18.2976053 L7.5731535,18.6744379 L0.084671282,18.6744379 L0.084671282,18.2976053 C0.679714897,18.2456223 1.1908857,18.1318432 1.61705027,17.9572404 C2.04321484,17.7793223 2.25743054,17.4920013 2.25743054,17.0864365 L2.25743054,4.07300267 C2.25743054,3.87077285 2.23702905,3.72048183 2.19849289,3.61881438 C2.15995673,3.51825201 2.05001534,3.40332359 1.86980213,3.27734435 C1.63631835,3.15136512 1.36429841,3.00659951 1.05487573,2.84304752 C0.744319633,2.67839045 0.433763536,2.53362484 0.12320744,2.40654052 L0.12320744,2.17999892 L5.20658004,0.404133751 L5.46839923,0.404133751 L5.47746656,5.57038743" id="path3039"></path>
                            </g>
                        </g>
                    </g>
                </g>
            </g>
        </g>
    </g>
</svg>